<?xml version="1.0" encoding="UTF-8"?>
<svg version="1.1" xmlns="http://www.w3.org/2000/svg" width="1254" height="1254">
<path d="M0 0 C413.82 0 827.64 0 1254 0 C1254 413.82 1254 827.64 1254 1254 C840.18 1254 426.36 1254 0 1254 C0 840.18 0 426.36 0 0 Z " fill="#F7F7F7" transform="translate(0,0)"/>
<path d="M0 0 C413.82 0 827.64 0 1254 0 C1254 413.82 1254 827.64 1254 1254 C840.18 1254 426.36 1254 0 1254 C0 840.18 0 426.36 0 0 Z M258 108 C257.19070923 108.11954033 256.38141846 108.23908065 255.54760373 108.36224341 C245.6282749 109.85549512 236.39386551 112.51264524 227 116 C226.01902344 116.35707031 225.03804688 116.71414062 224.02734375 117.08203125 C204.99503251 124.49075763 188.05606651 136.11874292 173.16796875 149.984375 C171.09777453 151.90909611 168.97046891 153.73747487 166.8125 155.5625 C149.08484226 171.14028275 134.12925979 194.58412532 126.9375 217 C125.02726155 222.92396903 125.02726155 222.92396903 124.22265625 225.16796875 C122.45286916 230.11380619 121.12940147 235.15371101 119.875 240.25 C119.70419922 240.91668701 119.53339844 241.58337402 119.35742188 242.27026367 C116.84810594 252.80364218 116.85099631 263.74039277 116.87136555 274.51438713 C116.86961251 275.70942309 116.86785947 276.90445904 116.86605331 278.13570821 C116.86222665 281.42684816 116.86281005 284.71795176 116.86533108 288.00909181 C116.86697526 291.599672 116.86281414 295.19024647 116.85942191 298.78082478 C116.85428425 305.06556712 116.85284786 311.35030177 116.85387802 317.63504601 C116.85540625 326.98137183 116.85123385 336.32768918 116.8460034 345.67401335 C116.83634218 363.34150631 116.8335196 381.00899637 116.83294634 398.67649166 C116.83248639 412.32491793 116.83042591 425.97334306 116.82724571 439.62176895 C116.82634813 443.5538127 116.82545832 447.48585645 116.82457083 451.4179002 C116.82434979 452.39549217 116.82412874 453.37308413 116.82390099 454.38030009 C116.81774826 481.87202732 116.81380027 509.36375415 116.81424427 536.8554821 C116.81425985 537.89159463 116.81427543 538.92770716 116.81429148 539.99521704 C116.81437458 545.2463673 116.81447362 550.49751756 116.81457619 555.74866782 C116.81459613 556.79151645 116.81461608 557.83436508 116.81463663 558.90881518 C116.81467706 561.01770994 116.81471886 563.1266047 116.81476202 565.23549947 C116.8153745 598.03200408 116.80787254 630.82849835 116.79418945 663.625 C116.77881316 700.49483829 116.77022419 737.36466979 116.77115268 774.23451149 C116.7712273 778.16969879 116.77127601 782.10488609 116.77130699 786.04007339 C116.77131865 787.00897295 116.7713303 787.9778725 116.77134231 788.97613265 C116.77137302 804.53721616 116.76499961 820.09829067 116.75637473 835.6593715 C116.74787827 851.31308607 116.74692384 866.96678751 116.75348405 882.62050311 C116.75716661 891.90725296 116.75538625 901.19396283 116.74554171 910.4807084 C116.73950891 916.69989107 116.74087352 922.919045 116.74801221 929.13822639 C116.75186613 932.67126813 116.75275044 936.20423294 116.74455485 939.73726903 C116.55761397 970.5959518 116.55761397 970.5959518 121.875 1000.875 C122.11863281 1001.84050781 122.36226563 1002.80601562 122.61328125 1003.80078125 C124.19644063 1009.84631733 126.34120556 1015.35655531 129 1021 C129.72509766 1022.73056641 129.72509766 1022.73056641 130.46484375 1024.49609375 C136.18657588 1037.55561976 143.16839149 1049.80633213 152 1061 C152.63542725 1061.80679199 152.63542725 1061.80679199 153.28369141 1062.62988281 C182.84974675 1099.70142418 222.86393347 1122.27004286 270 1128 C279.35258881 1128.72854494 288.72104761 1128.67921937 298.09612948 1128.62373369 C301.72663679 1128.60801761 305.35706862 1128.62207429 308.98758006 1128.63195282 C315.31899655 1128.64525519 321.65018494 1128.64041228 327.98158836 1128.62294388 C337.39662809 1128.59704058 346.81150894 1128.60028751 356.22657236 1128.60898646 C372.07618731 1128.62278546 387.92570645 1128.61325806 403.7753067 1128.58978081 C419.46040909 1128.56656703 435.14546905 1128.55297191 450.83058929 1128.55226326 C451.80926246 1128.55220981 452.78793562 1128.55215636 453.79626554 1128.55210129 C457.76959449 1128.55191267 461.74292344 1128.55179112 465.7162524 1128.55175897 C502.92159241 1128.55141881 540.12686805 1128.52442538 577.33218348 1128.48356687 C610.35931964 1128.44741181 643.38641841 1128.42830145 676.41357422 1128.42553711 C677.46464811 1128.42544561 678.51572201 1128.4253541 679.59864663 1128.42525982 C682.77853687 1128.42498338 685.95842711 1128.4247119 689.13831735 1128.4244408 C693.36230358 1128.42407775 697.5862898 1128.42370435 701.81027603 1128.42332363 C702.85261946 1128.4232334 703.89496288 1128.42314318 704.96889247 1128.42305022 C737.5563256 1128.42006703 770.14375183 1128.40260179 802.73117841 1128.38263602 C813.53147018 1128.37602723 824.33176086 1128.37033469 835.13205433 1128.36744571 C836.58852253 1128.36705394 836.58852253 1128.36705394 838.07441433 1128.36665427 C839.04331101 1128.36639514 840.01220769 1128.36613602 841.01046488 1128.36586904 C859.68190063 1128.36086859 878.35330882 1128.34962343 897.02472946 1128.32456874 C906.37523162 1128.31218924 915.72570028 1128.30511894 925.07621082 1128.30591112 C931.32843343 1128.30587321 937.58062035 1128.2985123 943.83282889 1128.28528446 C947.39020913 1128.27794926 950.94751745 1128.2736327 954.50490406 1128.27816027 C968.14629526 1128.29350646 981.51963703 1128.27046611 995 1126 C995.80417901 1125.8804857 996.60835803 1125.76097139 997.4369061 1125.63783544 C1039.87495613 1119.18670837 1078.77414401 1094.47449714 1104.44335938 1060.39746094 C1109.0782267 1054.07952526 1113.20326653 1047.53343653 1117.02978516 1040.69970703 C1117.92057373 1039.13914588 1118.86984297 1037.61234901 1119.82421875 1036.08984375 C1125.9381491 1025.88164094 1128.89590179 1014.43875148 1132.12304688 1003.06152344 C1132.66450291 1001.17125098 1133.22890128 999.28717448 1133.83007812 997.41503906 C1139.20710918 979.94305719 1138.29356959 960.97914024 1138.25693511 942.91578376 C1138.25180182 939.27409455 1138.2584049 935.63242173 1138.26342177 931.99073493 C1138.27060453 925.62585757 1138.27045121 919.26101421 1138.26532745 912.89613533 C1138.25772906 903.43128827 1138.26164717 893.96646964 1138.26774407 884.50162275 C1138.27825065 867.59425967 1138.27737289 850.68691175 1138.27158624 833.77954725 C1138.26654845 818.98707199 1138.26524486 804.19460226 1138.26763153 789.40212631 C1138.2677843 788.41962643 1138.26793707 787.43712654 1138.26809447 786.42485393 C1138.26871718 782.43629551 1138.26935398 778.4477371 1138.270014 774.45917868 C1138.27612635 737.07595576 1138.27059351 699.69274248 1138.2598202 662.30952104 C1138.25032516 629.10933699 1138.25118263 595.90916829 1138.26074219 562.70898438 C1138.27145369 525.38360225 1138.27569725 488.05822863 1138.26951766 450.73284519 C1138.26887625 446.75355649 1138.26825056 442.77426779 1138.26763153 438.7949791 C1138.26747338 437.81521911 1138.26731522 436.83545912 1138.26715227 435.82600944 C1138.2648787 421.04002126 1138.26753524 406.25403924 1138.27259064 391.46805191 C1138.2783095 374.65804325 1138.2768785 357.84805208 1138.26602915 341.0380456 C1138.26015946 331.6336313 1138.25976914 322.22925488 1138.2673215 312.82484156 C1138.27181145 306.5402008 1138.26900576 300.25559035 1138.26031196 293.97095407 C1138.25556281 290.39243188 1138.25391018 286.81398485 1138.26112393 283.23546506 C1138.26882894 279.37377009 1138.26096153 275.51219274 1138.25168228 271.65049934 C1138.25636461 270.54939201 1138.26104695 269.44828469 1138.26587117 268.31381047 C1138.05611908 224.59981408 1117.17799106 183.56318179 1086.69262695 153.26879883 C1069.83598069 136.22826555 1069.83598069 136.22826555 1049 127 C1049 126.34 1049 125.68 1049 125 C1044.90135235 123.234516 1044.90135235 123.234516 1040.79614258 121.484375 C1037.92990878 120.26846129 1035.08726817 119.0416934 1032.27734375 117.69921875 C1025.29417039 114.46568297 1018.077345 112.6187286 1010.625 110.8125 C1009.59721436 110.56242187 1008.56942871 110.31234375 1007.51049805 110.0546875 C995.45748347 107.24171556 983.61141837 105.69552108 971.23369026 105.74831772 C970.02358467 105.74541084 968.81347908 105.74250396 967.56670362 105.73950899 C964.23793984 105.73351043 960.90940542 105.7363416 957.58065801 105.74306489 C953.94772993 105.74817261 950.31481885 105.74160496 946.68189323 105.73657823 C940.32455562 105.72937703 933.96725202 105.7295603 927.60991287 105.73467255 C918.15603665 105.74225411 908.70218899 105.73836139 899.24831295 105.73225593 C882.3607189 105.72173528 865.47313999 105.72263298 848.5855445 105.72841376 C833.80553141 105.73344813 819.02552387 105.73475675 804.2455101 105.73236847 C803.26448824 105.7322157 802.28346638 105.73206293 801.27271658 105.73190553 C797.29024224 105.73128283 793.3077679 105.73064603 789.32529356 105.729986 C751.97692257 105.72386992 714.62856121 105.72941171 677.28019171 105.7401798 C644.11436092 105.7496693 610.9485455 105.74882277 577.78271484 105.73925781 C540.50495063 105.72854287 503.22719493 105.72430519 465.94942939 105.73048234 C461.97366007 105.73112375 457.99789075 105.73174944 454.02212143 105.73236847 C453.04321436 105.73252662 452.06430729 105.73268478 451.05573638 105.73284773 C436.28811273 105.73512047 421.52049526 105.73246618 406.75287247 105.72740936 C389.95600359 105.72168629 373.15915221 105.72313017 356.36228551 105.73397085 C346.96741475 105.73983466 337.5725819 105.74023945 328.17771214 105.7326785 C321.89542648 105.72818117 315.61317109 105.73100752 309.3308899 105.73968804 C305.7560853 105.74442718 302.18135581 105.74611095 298.60655369 105.73887607 C284.92735003 105.71318393 271.51748477 105.71906579 258 108 Z " fill="#FDFDFD" transform="translate(0,0)"/>
<path d="M0 0 C1.20424729 -0.00235223 2.40849458 -0.00470446 3.64923421 -0.00712797 C6.97554448 -0.01261666 10.30180171 -0.01369378 13.62811276 -0.01285056 C17.25335219 -0.01302109 20.87858318 -0.01893872 24.50381833 -0.02409142 C31.68684733 -0.03338889 38.86987016 -0.03733464 46.05290442 -0.03961039 C54.66014985 -0.04257993 63.26738717 -0.05128172 71.87462834 -0.06002467 C92.67643509 -0.08083952 113.47824324 -0.09133427 134.28005797 -0.10015428 C144.12689336 -0.10436507 153.97372815 -0.10958648 163.82056303 -0.11483881 C197.54792308 -0.13272657 231.27528331 -0.14772113 265.0026474 -0.155159 C267.11888999 -0.15563375 269.23513259 -0.15610964 271.35137518 -0.15658666 C272.40080623 -0.15682303 273.45023727 -0.15705941 274.53146925 -0.15730295 C279.84810664 -0.15850411 285.16474403 -0.15971957 290.48138142 -0.16094494 C291.53646976 -0.16118509 292.59155811 -0.16142524 293.67861883 -0.16167267 C327.87365189 -0.16956252 362.06865024 -0.19298915 396.26366816 -0.22550088 C432.44279065 -0.25983605 468.62189284 -0.27951354 504.80103189 -0.28280324 C508.7764297 -0.28322075 512.7518275 -0.28370031 516.7272253 -0.28422642 C517.70603249 -0.28434961 518.68483967 -0.2844728 519.69330768 -0.28459973 C535.41238965 -0.28692712 551.13143114 -0.3025612 566.85049871 -0.32306826 C582.6657931 -0.34337273 598.48103911 -0.34878175 614.29634412 -0.33929763 C623.67845715 -0.33410068 633.06040854 -0.3398743 642.44249814 -0.3618323 C648.72658952 -0.37542136 655.01057066 -0.37419255 661.29466334 -0.36143034 C664.86406234 -0.35458712 668.43315422 -0.35367698 672.00252476 -0.37099043 C702.1080846 -0.48993132 730.51306091 3.57816141 757.62518024 17.13422108 C759.28373257 17.82082607 760.94752517 18.49571056 762.62518024 19.13422108 C762.62518024 19.79422108 762.62518024 20.45422108 762.62518024 21.13422108 C763.49658649 21.38945545 764.36799274 21.64468983 765.26580524 21.90765858 C778.60891694 26.77944587 790.39573021 38.55933407 800.62518024 48.13422108 C801.57393024 49.01722889 802.52268024 49.9002367 803.50018024 50.81000233 C820.25640976 66.76138344 832.81112115 86.40842672 840.62518024 108.13422108 C840.93528034 108.94197987 841.24538044 109.74973866 841.56487751 110.58197498 C844.1968475 117.53579139 846.11838989 124.52438121 847.81268024 131.75922108 C848.20229939 133.3602367 848.20229939 133.3602367 848.59978962 134.99359608 C851.02083484 145.17825143 851.77311485 154.85407643 851.7538147 165.29252911 C851.75556773 166.49765506 851.75732077 167.70278102 851.75912693 168.94442594 C851.76297086 172.28249224 851.76236153 175.62050328 851.75984916 178.95856722 C851.75821184 182.59299605 851.76236046 186.22741912 851.76575834 189.86184609 C851.77090698 196.2296598 851.77233046 202.5974659 851.77130222 208.96528149 C851.76977685 218.4349831 851.7739401 227.9046763 851.77917685 237.37437627 C851.78884851 255.27358006 851.79166104 273.17278098 851.79223391 291.07198708 C851.79269351 304.89788895 851.79475216 318.7237897 851.79793453 332.5496912 C851.79883209 336.53003156 851.7997219 340.51037192 851.80060941 344.49071229 C851.80083046 345.48025958 851.80105151 346.46980687 851.80127925 347.48934044 C851.80743383 375.32543943 851.81137979 403.16153804 851.81093597 430.99763775 C851.8109204 432.0471781 851.81090482 433.09671845 851.81088877 434.17806305 C851.81080566 439.49750086 851.81070662 444.81693867 851.81060406 450.13637649 C851.81057414 451.72104593 851.81057414 451.72104593 851.81054362 453.33772889 C851.81050318 455.47412277 851.81046138 457.61051666 851.81041823 459.74691054 C851.80980572 492.97237259 851.81730739 526.19782444 851.83099079 559.42328358 C851.84636059 596.75890402 851.85495644 634.09451776 851.85402757 671.43014157 C851.85395294 675.41362548 851.85390423 679.39710939 851.85387325 683.3805933 C851.85385577 684.85182398 851.85385577 684.85182398 851.85383794 686.35277649 C851.8538072 702.11943305 851.86018628 717.88608072 851.86880552 733.65273465 C851.87729397 749.50850549 851.87826265 765.36426338 851.8716962 781.22003524 C851.86800823 790.63202543 851.86981031 800.0439762 851.87963854 809.4559622 C851.88565734 815.75366285 851.88432203 822.05133508 851.87716804 828.34903446 C851.87330246 831.93027319 851.87246439 835.51143587 851.88062539 839.09266911 C851.96297275 877.823793 851.96297275 877.823793 846.25018024 895.50922108 C845.77294514 897.04521961 845.77294514 897.04521961 845.28606892 898.61224842 C844.66867887 900.59857882 844.04589967 902.58324556 843.41668415 904.5658617 C842.7842701 906.61798872 842.22861355 908.69371543 841.69939899 910.77484608 C837.50771001 927.19766855 827.09022229 942.94271722 816.62518024 956.13422108 C815.98612751 956.94246326 815.98612751 956.94246326 815.33416462 957.76703358 C789.64532102 989.88760247 753.90578401 1012.33372948 713.18768024 1019.75922108 C712.52026814 1019.88248768 711.85285603 1020.00575428 711.16521931 1020.13275623 C700.88879318 1021.9144963 690.56395421 1022.28259175 680.15410328 1022.27123547 C678.95158891 1022.27388729 677.74907453 1022.27653912 676.51012033 1022.2792713 C673.19330576 1022.28557956 669.87654311 1022.28750062 666.55972619 1022.28749408 C662.94298089 1022.28857133 659.32624537 1022.29537179 655.70950556 1022.30140078 C648.54534682 1022.31243103 641.38119297 1022.31811366 634.21702725 1022.32210966 C625.63136723 1022.32713537 617.0457166 1022.33786538 608.46006215 1022.34859139 C586.72486445 1022.37538867 564.98966231 1022.39047031 543.25445294 1022.40393251 C537.3633286 1022.40760589 531.47220451 1022.41160848 525.58108044 1022.41568518 C488.97538332 1022.44094945 452.36968573 1022.46298522 415.76398182 1022.47541332 C407.28949195 1022.47833437 398.81500211 1022.48130196 390.34051228 1022.48431873 C389.2877247 1022.48468964 388.23493712 1022.48506055 387.15024688 1022.4854427 C353.0383491 1022.49759047 318.92650301 1022.52852444 284.81462949 1022.57024026 C249.71168641 1022.61308942 214.60877062 1022.63966207 179.50580068 1022.64488804 C174.54104163 1022.64562839 169.57628263 1022.64653906 164.61152363 1022.64754581 C163.63451579 1022.64773643 162.65750794 1022.64792704 161.6508938 1022.64812343 C145.97262825 1022.65162731 130.29442777 1022.67187999 114.61618605 1022.69834245 C98.83566486 1022.72457446 83.05521834 1022.73217771 67.27467847 1022.72124116 C57.91780492 1022.71529474 48.56118592 1022.72301466 39.20435124 1022.751072 C32.93201839 1022.7684764 26.65985678 1022.76724812 20.38751979 1022.75170431 C16.82808202 1022.74338904 13.26912559 1022.742358 9.70973486 1022.76431577 C-20.16209654 1022.91462707 -47.56050791 1018.53398607 -74.37481976 1005.13422108 C-75.44216351 1004.61215076 -76.50950726 1004.09008045 -77.60919476 1003.55218983 C-91.8594443 996.26754733 -104.55701904 986.70790867 -115.95636272 975.51752186 C-117.26417962 974.24211901 -118.60150221 972.99715926 -119.94122601 971.75531483 C-131.97730445 960.33746192 -141.29710614 946.53674852 -149.37481976 932.13422108 C-150.02321819 931.01144764 -150.67161663 929.8886742 -151.33966351 928.73187733 C-155.2815779 921.72310353 -158.0604282 914.81974776 -160.37481976 907.13422108 C-160.8711095 905.71625037 -161.37089585 904.29949672 -161.87481976 902.88422108 C-169.45212393 879.61403013 -169.68191707 856.16237515 -169.63175486 831.87146053 C-169.62659922 828.27450866 -169.63323319 824.67757291 -169.63824153 821.08062345 C-169.64540855 814.80034766 -169.64528088 808.52010636 -169.64014721 802.23982906 C-169.63253404 792.90057983 -169.63647449 783.56135932 -169.64256382 774.22211024 C-169.65305925 757.53673605 -169.6521971 740.85137725 -169.646406 724.16600163 C-169.6413642 709.56699514 -169.64006647 694.96799427 -169.64245129 680.36898708 C-169.64260406 679.39857855 -169.64275683 678.42817002 -169.64291423 677.42835518 C-169.64353695 673.4886738 -169.64417376 669.54899242 -169.64483375 665.60931104 C-169.65094351 628.69829027 -169.64541749 591.78727926 -169.63463996 554.87625999 C-169.6251459 522.11173724 -169.62600211 489.34723003 -169.63556194 456.58270741 C-169.64627899 419.72932376 -169.65051386 382.87594874 -169.64433742 346.02256376 C-169.64369602 342.09183459 -169.64307034 338.16110542 -169.64245129 334.23037624 C-169.64229313 333.26260458 -169.64213498 332.29483291 -169.64197203 331.29773483 C-169.63970067 316.70751913 -169.64235086 302.11730968 -169.64741039 287.52709484 C-169.65313558 270.93508296 -169.65168482 254.34308879 -169.6408489 237.7510791 C-169.6349897 228.47433723 -169.63457366 219.19763375 -169.64214125 209.9208929 C-169.64664393 203.71511487 -169.64380272 197.50936746 -169.63513172 191.30359395 C-169.63040006 187.77428591 -169.62869289 184.24505383 -169.63594368 180.71574833 C-169.6656569 162.19734121 -169.65245994 144.03873871 -164.37481976 126.13422108 C-164.09896038 125.1364867 -163.82310101 124.13875233 -163.53888226 123.11078358 C-154.34358706 91.28091558 -135.47701532 60.88212012 -109.37481976 40.13422108 C-108.42349163 39.36851795 -107.47216351 38.60281483 -106.49200726 37.81390858 C-90.01742279 24.73852014 -72.44654926 14.63007766 -52.37481976 8.13422108 C-51.31907757 7.7758617 -50.26333538 7.41750233 -49.17560101 7.04828358 C-33.09777725 1.7878886 -16.86199546 -0.022674 0 0 Z M-103.37481976 72.13422108 C-106.54734735 75.67998721 -109.49400058 79.34908461 -112.37481976 83.13422108 C-113.03997601 83.98371326 -113.70513226 84.83320545 -114.39044476 85.70843983 C-125.50813899 100.34965527 -133.06459978 116.57617797 -138.12481976 134.19672108 C-138.42307659 135.22128407 -138.42307659 135.22128407 -138.72735882 136.2665453 C-141.72493188 147.2722145 -142.67506925 158.47549213 -142.62929535 169.84250546 C-142.63250183 171.04634754 -142.63570831 172.25018963 -142.63901195 173.49051178 C-142.64583392 176.80173485 -142.64384108 180.11273015 -142.63795623 183.42394 C-142.63375646 187.03791634 -142.64120444 190.65187284 -142.64710873 194.26584423 C-142.65584442 200.59002176 -142.65719224 206.9141669 -142.65360546 213.23834896 C-142.64828567 222.64313495 -142.65440662 232.04788972 -142.66268839 241.45267231 C-142.67791284 259.22968535 -142.67963502 277.00668413 -142.67716537 294.78370233 C-142.67533115 308.51460692 -142.67709501 322.24550685 -142.68138981 335.97641087 C-142.68199222 337.95066246 -142.68259341 339.92491406 -142.68319341 341.89916565 C-142.68410069 344.87436636 -142.68500936 347.84956707 -142.68592576 350.82476778 C-142.69435313 378.480471 -142.69869252 406.13617247 -142.69451904 433.79187679 C-142.69436267 434.8340304 -142.69420629 435.87618401 -142.69404518 436.94991804 C-142.69323942 442.23168756 -142.69239365 447.51345708 -142.69153187 452.79522659 C-142.69136079 453.84415823 -142.6911897 454.89308987 -142.69101343 455.97380731 C-142.69066677 458.09500157 -142.69031824 460.21619583 -142.68996784 462.33739009 C-142.6846119 495.33543286 -142.69253834 528.33344891 -142.7110014 561.3314867 C-142.73173242 598.42617347 -142.74244194 635.52084368 -142.73842591 672.61553657 C-142.73803058 676.57340328 -142.73766903 680.53126998 -142.73732853 684.4891367 C-142.7372378 685.46362462 -142.73714707 686.43811254 -142.73705358 687.44213041 C-142.73588915 702.13276597 -142.74252423 716.82338477 -142.75314045 731.51401615 C-142.76520755 748.22916308 -142.76673409 764.94427319 -142.75435028 781.65942068 C-142.74773595 791.00458987 -142.7493197 800.34967092 -142.7629388 809.694833 C-142.77121495 815.94909407 -142.76844487 822.20328948 -142.75696353 828.45754528 C-142.75073826 832.01309041 -142.74902456 835.56846424 -142.76082686 839.12399913 C-142.8439103 867.73886401 -142.8439103 867.73886401 -135.37481976 895.13422108 C-134.70186364 897.03055114 -134.02919179 898.92698703 -133.36139202 900.82513905 C-126.64851765 919.59092708 -116.15629931 935.7653342 -102.37481976 950.13422108 C-101.50599163 951.07781483 -100.63716351 952.02140858 -99.74200726 952.99359608 C-84.81127074 968.89204149 -64.3671232 981.98130455 -43.37481976 988.13422108 C-41.65778851 988.6524242 -41.65778851 988.6524242 -39.90606976 989.18109608 C-22.21642892 994.22483665 -5.06194846 994.42965059 13.23046548 994.39735755 C16.87296516 994.39315405 20.51544525 994.40060782 24.15794003 994.40651006 C30.53055771 994.41524168 36.90314325 994.41659502 43.27576542 994.41300678 C52.75240456 994.40768492 62.22901276 994.41380994 71.70564854 994.42208972 C89.61750026 994.43730986 107.52933781 994.43903686 125.44119464 994.43656669 C139.27412245 994.43473237 153.10704564 994.43649656 166.93997288 994.44079113 C168.92897951 994.44139354 170.91798614 994.44199473 172.90699277 994.44259473 C175.90440767 994.44350201 178.90182257 994.44441068 181.89923746 994.44532708 C209.75821219 994.45375353 237.61718518 994.4580944 265.476161 994.45392036 C266.52583856 994.45376399 267.57551611 994.45360761 268.65700207 994.4534465 C273.9769074 994.45264074 279.29681272 994.45179497 284.61671804 994.4509332 C285.67322563 994.45076211 286.72973322 994.45059102 287.81825619 994.45041475 C289.95476903 994.45006809 292.09128187 994.44971956 294.22779472 994.44936916 C327.4743621 994.44401158 360.72090296 994.4519447 393.9674654 994.47040272 C431.33973598 994.49112708 468.71199013 994.50184468 506.08426678 994.49782723 C510.07042988 994.4974319 514.05659298 994.49707035 518.04275608 994.49672985 C519.02421553 994.49663912 520.00567497 994.49654839 521.01687561 994.49645491 C535.82017438 994.4952899 550.62345652 994.50192983 565.42675114 994.51254177 C582.26492814 994.5246003 599.10306859 994.52614511 615.94124614 994.5137516 C625.35814812 994.50713026 634.77496265 994.50873737 644.19185761 994.52234012 C650.4900692 994.53060216 656.78821549 994.52786434 663.0864218 994.51636485 C666.66951214 994.51012585 670.2524322 994.50846214 673.8355125 994.52022818 C691.97702823 994.57577453 708.89147983 993.98088949 726.18768024 987.94672108 C727.0662569 987.64556385 727.94483356 987.34440662 728.85003376 987.03412342 C767.25295734 973.45800137 795.04248246 945.72788703 812.55828571 909.46771717 C814.34165082 905.56716712 815.75662386 901.63510134 816.94158649 897.50922108 C817.62518024 895.13422108 817.62518024 895.13422108 818.61736774 892.71234608 C819.7552548 889.80147221 820.48526565 886.92924352 821.18768024 883.88422108 C821.56086384 882.2986742 821.56086384 882.2986742 821.94158649 880.68109608 C823.53692282 872.4035796 823.77055722 864.32162393 823.75940132 855.91903019 C823.76175355 854.70774993 823.76410578 853.49646968 823.76652929 852.24848396 C823.77203031 848.89314569 823.77309366 845.53785991 823.77225188 842.18252083 C823.77242206 838.52933545 823.77833576 834.87615852 823.78349274 831.2229774 C823.79280109 823.9802523 823.79673781 816.73753331 823.79901171 809.49480297 C823.8019784 800.81786398 823.81067856 792.14093306 823.81942599 783.46399831 C823.84025262 762.49229014 823.8507375 741.52058058 823.8595556 720.54886448 C823.86376477 710.6237641 823.86898641 700.69866432 823.87424013 690.77356445 C823.89212904 656.78565204 823.90712405 622.79773945 823.91456032 588.80982304 C823.91503507 586.67674914 823.91551096 584.54367525 823.91598798 582.41060136 C823.91622436 581.35281065 823.91646073 580.29501994 823.91670427 579.20517497 C823.91790544 573.84607445 823.9191209 568.48697394 823.92034626 563.12787342 C823.92070648 561.53259251 823.92070648 561.53259251 823.92107399 559.9050837 C823.92896465 525.43320628 823.95239234 490.9613633 823.9849022 456.48950091 C824.01922631 420.0272025 824.03891385 383.56492423 824.04220456 347.1026094 C824.04262208 343.09718338 824.04310164 339.09175737 824.04362774 335.08633137 C824.04375093 334.10011316 824.04387412 333.11389495 824.04400105 332.09779135 C824.04632985 316.24969017 824.06197192 300.4016291 824.08246959 284.5535422 C824.10275967 268.61259248 824.10818984 252.67169075 824.09869895 236.7307305 C824.09349638 227.27023501 824.09930246 217.80989969 824.12123362 208.34942736 C824.13479936 202.01684651 824.13361409 195.68437521 824.12083167 189.35179312 C824.11397319 185.75220403 824.11313235 182.15291984 824.13039175 178.5533587 C824.31368414 137.76128704 814.04528839 101.13856625 784.96355915 71.5033617 C783.80588687 70.31908112 782.67216678 69.11147492 781.54314899 67.89984608 C772.02410225 57.87979687 760.72783182 50.60061975 748.62518024 44.13422108 C747.83240681 43.68562733 747.03963337 43.23703358 746.22283649 42.77484608 C740.80438703 39.84183653 735.08745877 37.68689506 729.31268024 35.57172108 C728.5738863 35.29062489 727.83509235 35.00952869 727.07391071 34.71991444 C708.61921128 28.19454827 689.85163278 27.54346718 670.47339661 27.63275358 C666.85717459 27.64487232 663.24100651 27.6333865 659.62478411 27.62511194 C653.30752456 27.61382028 646.99040947 27.61716434 640.67315578 27.63048267 C631.27886394 27.65023293 621.88467647 27.64682381 612.49037219 27.63898208 C596.6775831 27.62646841 580.86485386 27.63273332 565.05207157 27.65017033 C549.39467914 27.66743173 533.73731361 27.67720988 518.07991123 27.67683506 C517.10396496 27.67681977 516.12801869 27.67680448 515.12249829 27.67678872 C511.16037772 27.6767069 507.19825716 27.67657567 503.2361366 27.6763771 C466.10560864 27.67456695 428.97512157 27.69442408 391.8446078 27.72523643 C358.88571714 27.75248627 325.92685551 27.7649587 292.96795368 27.76361561 C290.85124053 27.76353479 288.73452738 27.76345407 286.61781423 27.76337345 C285.04808833 27.7633124 285.04808833 27.7633124 283.4466508 27.76325011 C278.17832744 27.76304851 272.91000408 27.76286735 267.64168072 27.76270962 C266.08249831 27.76265948 266.08249831 27.76265948 264.49181728 27.76260832 C236.91623727 27.76187733 209.34066088 27.77096226 181.76508391 27.78336275 C180.78366564 27.78380329 179.80224738 27.78424383 178.79108917 27.78469773 C174.84496853 27.78647408 170.8988479 27.78825092 166.95272729 27.79007964 C153.2481006 27.79638842 139.54347677 27.79941672 125.83884872 27.80030262 C108.17585008 27.80149887 90.51287533 27.80952854 72.84988688 27.82916553 C63.51782412 27.83936271 54.18579639 27.84422528 44.85372834 27.84117317 C38.60972232 27.83969685 32.36575021 27.84556684 26.12175507 27.85726078 C22.57140269 27.86371675 19.02112332 27.86718599 15.47076754 27.86173959 C-30.83286446 27.81145246 -70.10872041 38.38248525 -103.37481976 72.13422108 Z " fill="#151515" transform="translate(286.3748197555542,105.86577892303467)"/>
<path d="M0 0 C37.95 0 75.9 0 115 0 C128 29 128 29 133 41 C134.70493177 44.88937561 136.42395519 48.76482698 138.21875 52.61328125 C140.79122735 58.15822481 143.05351715 63.69848004 145.0078125 69.4921875 C146.0807115 72.20400308 147.46457913 74.52535891 149 77 C150.49841803 80.2692757 151.83153652 83.54895261 153.08984375 86.91796875 C155.53866553 93.46641549 158.2659528 99.68034634 161.45703125 105.8984375 C165.14193559 113.30556166 168.32178154 120.94610687 171.0625 128.75 C172.64133824 133.22446689 174.61415757 137.34718694 176.7890625 141.55859375 C178.33179026 144.66893198 179.5761768 147.85537779 180.83203125 151.08984375 C183.10450459 156.75202648 185.61279259 162.31591805 188.08032227 167.89526367 C189.12032058 170.27536069 190.14338286 172.66255369 191.16529846 175.05046082 C192.02145197 177.05010348 192.87992149 179.04873734 193.73901367 181.04711914 C202.01332782 200.29697291 210.2616638 219.55665892 218.375 238.875 C224.32715201 253.0457741 230.33986592 267.18839955 236.41357422 281.30761719 C238.18790171 285.43486636 239.95533349 289.5650601 241.72265625 293.6953125 C242.69810701 295.97435921 243.67360064 298.25338756 244.64910889 300.53240967 C245.29557404 302.04282301 245.94193767 303.55327981 246.5881958 305.06378174 C249.75974373 312.47516069 252.93961683 319.88219299 256.17578125 327.265625 C256.64741699 328.34223389 257.11905273 329.41884277 257.60498047 330.52807617 C258.4691083 332.49587479 259.33642891 334.46227565 260.20751953 336.42700195 C260.58118652 337.27738037 260.95485352 338.12775879 261.33984375 339.00390625 C261.82505493 340.09940796 261.82505493 340.09940796 262.32006836 341.21704102 C263 343 263 343 263 345 C228.68 345 194.36 345 159 345 C152.2306121 330.33299289 152.2306121 330.33299289 150 323.5 C147.84959254 317.16360867 145.3272117 311.15608984 142.4375 305.11328125 C140.53928925 301.00221068 138.94338425 296.80320218 137.37109375 292.55859375 C136.2063067 289.535457 134.98572857 286.55140584 133.73291016 283.56420898 C131.07538872 277.19961829 128.48075811 270.8110405 125.90234375 264.4140625 C125.19600044 262.66379005 125.19600044 262.66379005 124.47538757 260.87815857 C123.22051043 257.76804015 121.96627166 254.65766604 120.71240997 251.54713821 C119.9307066 249.60814919 119.14871821 247.66927536 118.36663818 245.73043823 C112.32528292 230.75320968 106.29498204 215.77176127 100.31225586 200.77099609 C95.182088 187.92260274 89.98050018 175.10304336 84.78369141 162.28149414 C84.25708168 160.98199074 84.25708168 160.98199074 83.71983337 159.65623474 C83.04096872 157.98141427 82.36174915 156.30673761 81.68214417 154.63221741 C79.67876521 149.69217753 77.69914765 144.74383344 75.77075195 139.77392578 C73.79457392 135.22564906 70.64591639 132.04045298 66.25 129.73828125 C60.54425551 127.86608384 53.95642956 127.57466071 48.48828125 130.2109375 C43.13693195 134.10822331 40.04518596 138.42649348 37.64453125 144.58203125 C37.19553467 145.72099854 36.74653809 146.85996582 36.28393555 148.03344727 C36.04556976 148.64584259 35.80720398 149.25823792 35.56161499 149.88919067 C34.24479872 153.27004013 32.90628898 156.64231155 31.5703125 160.015625 C31.14219521 161.09862633 31.14219521 161.09862633 30.70542908 162.20350647 C27.27828525 170.85544325 23.73122378 179.45782779 20.1875 188.0625 C14.79323771 201.17147862 9.43856318 214.29560682 4.125 227.4375 C-0.47325617 238.80910011 -5.10780146 250.16273565 -9.85693359 261.47241211 C-11.98984208 266.55296769 -14.0716285 271.6501934 -16.10913086 276.76977539 C-17.19275009 279.4825355 -18.30898846 282.18062989 -19.4375 284.875 C-19.8603125 285.88820313 -20.283125 286.90140625 -20.71875 287.9453125 C-21.54750917 289.92119564 -22.3805581 291.89528733 -23.21875 293.8671875 C-25.64802251 299.61335133 -27.90795393 305.39692909 -30.0625 311.25 C-31.79231017 315.94675615 -33.63124524 320.45412292 -35.99609375 324.8671875 C-37.96175858 329.04326919 -39.35635378 333.46630593 -40.8515625 337.828125 C-42 341 -42 341 -44 345 C-78.32 345 -112.64 345 -148 345 C-144.62481853 334.8744556 -144.62481853 334.8744556 -142.75439453 330.49731445 C-142.33559525 329.51253113 -141.91679596 328.5277478 -141.48530579 327.51312256 C-141.038983 326.47367493 -140.59266022 325.43422729 -140.1328125 324.36328125 C-139.66195724 323.25913879 -139.19110199 322.15499634 -138.70597839 321.01739502 C-137.18249426 317.44758606 -135.65386376 313.88000789 -134.125 310.3125 C-133.33134831 308.45603924 -132.53825819 306.59933933 -131.74524403 304.74260616 C-125.82125505 290.87298105 -119.86439995 277.0180946 -113.84423828 263.18994141 C-108.57039882 251.05687517 -103.40448674 238.87813046 -98.23156738 226.70178223 C-90.49055407 208.48113007 -82.7024058 190.28099492 -74.890625 172.09057617 C-74.05328878 170.13985267 -73.21604587 168.18908912 -72.37890625 166.23828125 C-71.98498688 165.32062988 -71.5910675 164.40297852 -71.18521118 163.45751953 C-68.74494953 157.76416573 -66.34105058 152.05843691 -64.00170898 146.32275391 C-62.93305573 143.84477022 -61.74159346 141.45799449 -60.5 139.0625 C-58.04639922 134.27031097 -56.14422448 129.34158561 -54.25390625 124.3046875 C-51.43906729 116.88613997 -48.28562047 109.61368572 -45.05493164 102.36865234 C-44.03108107 100.06978674 -43.01445691 97.76786777 -42 95.46484375 C-41.33333333 93.95572917 -40.66666667 92.44661458 -40 90.9375 C-39.67 90.18662109 -39.34 89.43574219 -39 88.66210938 C-37.07428375 84.31044199 -35.05386504 80.03288052 -32.87475586 75.80200195 C-31.67845958 73.33762493 -30.76265136 70.80216699 -29.82983398 68.22875977 C-26.29806765 58.74317728 -22.03998947 49.53134865 -17.875 40.3125 C-11.82718116 26.91318709 -5.92128044 13.45745555 0 0 Z " fill="#131313" transform="translate(570,298)"/>
<path d="M0 0 C4.18252987 1.8480946 6.52179491 4.18737678 9 8 C10.23378126 11.8756442 11.01143489 15.82804444 11.8125 19.8125 C12.33190063 22.2682568 12.85143743 24.7239848 13.37109375 27.1796875 C13.63776855 28.46456055 13.90444336 29.74943359 14.17919922 31.07324219 C15.23598109 36.15405151 16.3500386 41.2221238 17.46426392 46.29060364 C18.18747018 49.58138473 18.90741646 52.87286976 19.62627697 56.16460323 C21.46876206 64.59810302 23.33344795 73.02651253 25.20953178 81.45259476 C26.079045 85.35858155 26.94715929 89.26487936 27.81542969 93.17114258 C27.99517051 93.97972843 28.17491133 94.78831429 28.36009884 95.62140274 C31.20243449 108.40867829 34.04319601 121.196277 36.86275864 133.98859692 C37.74804032 138.00449859 38.63566163 142.0198565 39.52807617 146.03417969 C40.41768415 150.03625692 41.30164264 154.03954417 42.18171883 158.04372787 C42.51102459 159.53751128 42.84227266 161.03086811 43.17565727 162.52374649 C44.9147986 170.31747231 46.50127308 178.01187708 47 186 C47.66 186 48.32 186 49 186 C49.04984543 185.44616135 49.09969086 184.89232269 49.15104675 184.32170105 C49.67990823 178.98814661 50.59281909 173.92480372 51.92578125 168.73828125 C52.11464401 167.98516159 52.30350677 167.23204193 52.49809265 166.45610046 C52.89625834 164.87310814 53.29723738 163.29082098 53.70092773 161.70922852 C54.30625138 159.33698809 54.90292652 156.96270891 55.49804688 154.58789062 C57.82772552 145.3383786 60.33155247 136.15804451 63 127 C63.38865234 125.60551636 63.38865234 125.60551636 63.78515625 124.18286133 C64.80305277 120.58174763 65.69530294 118.34822522 68.1875 115.5 C71.72580363 113.61290473 74.97144944 112.59933041 79 113 C84.52278269 114.89917437 86.45053061 117.85196498 89.4375214 122.55631983 C94.96263465 131.06052058 94.96263465 131.06052058 103.63485527 135.67146683 C109.06170936 136.48506162 114.46995414 136.32363745 119.93920898 136.17041016 C122.01860303 136.17844475 124.09797916 136.19429991 126.17726135 136.21731567 C131.78664716 136.25642547 137.38945967 136.18409312 142.99796176 136.08854342 C148.8802057 136.00533935 154.76231299 136.01868297 160.64503479 136.01937866 C170.51374222 136.0064072 180.37994091 135.92465951 190.24780273 135.79736328 C201.65012407 135.65072784 213.04998321 135.5947357 224.45319122 135.591066 C236.61372683 135.5865674 248.77334883 135.52108179 260.93355298 135.43503904 C264.43114194 135.41407719 267.92862701 135.40395076 271.42626762 135.39601517 C276.92079663 135.38018077 282.4134309 135.32308585 287.90724754 135.2341423 C289.92149396 135.20761231 291.93596921 135.19451195 293.95038986 135.19589233 C304.27123817 135.60885926 304.27123817 135.60885926 313.65785408 132.22822189 C315.39340336 130.23349026 316.6372752 128.25264648 318 126 C323.43398117 121.72043737 329.11629486 121.3788743 335.8828125 121.62109375 C343.05264442 122.49261467 347.46494938 126.01949795 352.45703125 131.0234375 C357.06542522 136.92684851 357.64616128 142.1487621 357.4765625 149.44921875 C356.63194892 155.7422822 353.84615434 160.35981736 349.21875 164.65234375 C341.88844255 170.19830005 334.94588611 170.87619924 326 170 C320.55872612 168.39452047 316.66087269 165.32648591 313 161 C312.67 160.01 312.34 159.02 312 158 C310.85201652 158.00460896 309.70403303 158.00921793 308.52126217 158.01396656 C281.2637669 158.12228133 254.00629508 158.20471527 226.74862876 158.25532665 C223.39288429 158.2615801 220.03714028 158.26805172 216.68139648 158.2746582 C216.01333495 158.27596976 215.34527341 158.27728131 214.65696759 158.2786326 C203.84312713 158.3003827 193.02941973 158.33980197 182.21565818 158.38576398 C171.1177865 158.43253977 160.01996905 158.45992355 148.92200142 158.47044247 C142.68920056 158.47696409 136.45670135 158.49230462 130.22399712 158.52865028 C124.35777805 158.56258173 118.49198499 158.57305849 112.62567711 158.56553841 C110.47260473 158.5669142 108.31951814 158.57686331 106.16653061 158.59602737 C103.22572671 158.6209204 100.28652926 158.61491838 97.34568787 158.60127258 C96.06891407 158.62311889 96.06891407 158.62311889 94.76634687 158.64540654 C88.65816813 158.56884267 85.66439924 156.93900126 81 153 C80.97421875 153.73863281 80.9484375 154.47726562 80.921875 155.23828125 C80.55998374 161.71119986 79.47768654 166.93899461 77.09375 172.94140625 C75.83892474 176.45043545 74.99255782 179.99387611 74.1875 183.625 C72.53689125 191.01166471 70.5687475 198.28234139 68.5 205.5625 C66.4891337 212.64542458 64.50670004 219.7243525 62.75 226.875 C62.44578125 228.10476563 62.1415625 229.33453125 61.828125 230.6015625 C61.28678798 232.82308708 60.755118 235.0469955 60.234375 237.2734375 C59.99203125 238.25570312 59.7496875 239.23796875 59.5 240.25 C59.3040625 241.08015625 59.108125 241.9103125 58.90625 242.765625 C57.76741084 245.57345259 56.30457006 247.0565939 54 249 C49.94659014 250.35113662 46.23831488 250.5512044 42 250 C37.67016308 247.3283985 35.44035164 244.63198293 34.10205078 239.67211914 C33.79317201 238.29460199 33.49139208 236.91548102 33.1953125 235.53515625 C33.03137497 234.79434814 32.86743744 234.05354004 32.6985321 233.2902832 C32.16763877 230.88237287 31.64614162 228.47253796 31.125 226.0625 C30.76168176 224.40478542 30.39799273 222.74715206 30.03393555 221.08959961 C28.04239111 211.9875837 26.13524504 202.87342667 24.35888672 193.72680664 C23.12086805 187.42153309 21.64524898 181.18735516 20.12939453 174.94384766 C18.04289639 166.29845423 16.10959225 157.62053423 14.1875 148.9375 C14.0178775 148.1718573 13.848255 147.4062146 13.67349243 146.61737061 C12.2738885 140.29841409 10.8782524 133.97858294 9.4831543 127.65863037 C4.10700921 103.30379414 4.10700921 103.30379414 -1.41891479 78.98260498 C-1.86323632 77.0511368 -2.30289781 75.11859847 -2.74243164 73.18603516 C-3.01047607 72.03151855 -3.27852051 70.87700195 -3.5546875 69.6875 C-3.90249268 68.17736328 -3.90249268 68.17736328 -4.25732422 66.63671875 C-4.93939247 64.21517466 -5.78589223 62.19490874 -7 60 C-13.73448944 76.9869709 -20.41813876 93.99165102 -26.9375 111.0625 C-27.19977386 111.74890564 -27.46204773 112.43531128 -27.73226929 113.14251709 C-30.77795106 121.11801983 -33.79442806 129.10410037 -36.78746033 137.09950256 C-39.81158617 145.17499303 -42.87191683 153.23679511 -45.94775391 161.29272461 C-47.97355435 166.60553969 -49.99326809 171.91643007 -51.8671875 177.28515625 C-52.12951172 178.02636719 -52.39183594 178.76757812 -52.66210938 179.53125 C-53.31548812 181.39293192 -53.95159104 183.26065361 -54.5859375 185.12890625 C-56.51962008 189.05502973 -59.12884305 191.06442152 -63 193 C-69.96503497 193.6965035 -69.96503497 193.6965035 -73.890625 191.0546875 C-77.80720039 187.56683503 -80.32041225 183.20900149 -83 178.75 C-83.9988404 177.11908091 -84.99883821 175.4888701 -86 173.859375 C-86.48726562 173.05951172 -86.97453125 172.25964844 -87.4765625 171.43554688 C-89.52233712 168.16493027 -91.69863665 164.98984836 -93.8984375 161.82128906 C-95 160 -95 160 -95 158 C-123.20702573 157.99045139 -151.41384275 158.01499252 -179.62079906 158.0802784 C-192.71737528 158.10979331 -205.81378892 158.12809167 -218.91040039 158.12011719 C-230.32350682 158.11319609 -241.73636174 158.12718511 -253.14940625 158.16643608 C-259.19434005 158.18649111 -265.23887867 158.19597157 -271.28383446 158.18042374 C-276.97129037 158.16612548 -282.65799004 158.17974284 -288.34534836 158.21495247 C-290.43472126 158.22293386 -292.52416207 158.22063708 -294.61350822 158.20739174 C-297.46343064 158.19084984 -300.31080456 158.2110318 -303.16056824 158.24050903 C-304.4052256 158.22012988 -304.4052256 158.22012988 -305.67502755 158.19933903 C-309.96750743 158.24889676 -309.96750743 158.24889676 -313.57800734 160.32726836 C-315.11251348 162.12855753 -315.11251348 162.12855753 -317 165 C-323.30938926 169.85337635 -329.91376083 170.79399767 -337.7265625 170.48046875 C-344.74069759 169.45094773 -349.41686112 165.38730115 -353.74609375 159.94921875 C-357.29970831 154.42506402 -359.26282353 147.53268326 -358 141 C-355.2460034 132.91650998 -350.371568 126.65460575 -342.64453125 122.8359375 C-336.39318521 120.85988425 -328.64853883 120.8159549 -322.625 123.5625 C-318.53209864 125.99211591 -314.94439495 129.26429891 -312 133 C-312 133.66 -312 134.32 -312 135 C-310.84078726 134.99723462 -309.68157452 134.99446924 -308.48723412 134.99162006 C-280.9692401 134.92664511 -253.45125377 134.87717775 -225.93319889 134.84680401 C-222.54612335 134.8430519 -219.15904796 134.83916893 -215.77197266 134.83520508 C-215.09766758 134.83441815 -214.4233625 134.83363122 -213.72862394 134.83282044 C-202.81068898 134.81976689 -191.89280141 134.79611333 -180.97489457 134.76854161 C-169.77192706 134.74048599 -158.56898323 134.72404796 -147.36597884 134.71773452 C-141.07349156 134.7138199 -134.78111177 134.70460468 -128.48865891 134.68280983 C-122.56752328 134.66246701 -116.64653957 134.6561618 -110.72537231 134.66067696 C-108.5509318 134.65985077 -106.37648628 134.65387212 -104.20207596 134.64238358 C-101.23498378 134.62747419 -98.26846636 134.63104095 -95.30136108 134.63923645 C-94.43948382 134.63049793 -93.57760655 134.6217594 -92.68961179 134.61275607 C-87.71371848 134.64994572 -84.31637617 135.25163032 -80 138 C-77.953125 140.3046875 -77.953125 140.3046875 -76.25 142.875 C-75.67765625 143.71804688 -75.1053125 144.56109375 -74.515625 145.4296875 C-73.05956159 147.89899091 -71.9827867 150.31178931 -71 153 C-70.34 153 -69.68 153 -69 153 C-68.73606445 152.20057983 -68.73606445 152.20057983 -68.46679688 151.38500977 C-66.53203222 145.54977473 -64.53302309 139.73916196 -62.5 133.9375 C-62.20480469 133.09123047 -61.90960937 132.24496094 -61.60546875 131.37304688 C-60.05868602 126.95415438 -58.47810304 122.55209595 -56.82177734 118.1730957 C-55.83300312 115.55839594 -54.85607391 112.93937162 -53.87890625 110.3203125 C-53.10679121 108.25520072 -52.33465538 106.1900967 -51.5625 104.125 C-51.18029297 103.10019531 -50.79808594 102.07539062 -50.40429688 101.01953125 C-50.02466797 100.00503906 -49.64503906 98.99054688 -49.25390625 97.9453125 C-48.91689697 97.04312988 -48.5798877 96.14094727 -48.23266602 95.21142578 C-47.22267373 92.58012482 -46.18762049 89.96290915 -45.13720703 87.34765625 C-42.89076745 81.74856861 -40.71610973 76.12305725 -38.55078125 70.4921875 C-38.1338652 69.40906281 -37.71694916 68.32593811 -37.28739929 67.20999146 C-36.40716082 64.92251459 -35.5272686 62.63490445 -34.64770508 60.34716797 C-33.33472442 56.93279406 -32.01997333 53.51910573 -30.70507812 50.10546875 C-30.06298904 48.43547821 -30.06298904 48.43547821 -29.40792847 46.73175049 C-28.54605722 44.49189699 -27.68190674 42.25291915 -26.81546021 40.01483154 C-24.66136407 34.42917877 -22.57161832 28.83185234 -20.59521484 23.18066406 C-20.01298409 21.54413376 -20.01298409 21.54413376 -19.41899109 19.87454224 C-18.69149485 17.82051755 -17.98078666 15.76043429 -17.29060364 13.693573 C-14.31120834 5.35068471 -9.83853124 -1.63975521 0 0 Z " fill="#151515" transform="translate(624,529)"/>
<path d="M0 0 C35.64 0 71.28 0 108 0 C112.65311852 9.30623704 117.06225724 18.51274904 121.125 28.0625 C122.2600782 30.71090441 123.39904985 33.35762259 124.5390625 36.00390625 C124.96986115 37.00467697 124.96986115 37.00467697 125.40936279 38.02566528 C128.3681004 44.88279999 131.42897543 51.69242248 134.5 58.5 C138.77526345 67.99488047 143.00475397 77.5074518 147.15551758 87.05737305 C147.96854708 88.92764646 148.78402914 90.79685312 149.59960938 92.66601562 C152.08063567 98.3936602 154.4610102 104.13492829 156.671875 109.97265625 C158.70093099 115.32368271 161.05027463 120.21429758 163.765625 125.24609375 C165 128 165 128 166 134 C129.04 134 92.08 134 54 134 C36.78104027 92.67449664 36.78104027 92.67449664 28.875 73.5 C27.28935509 69.65612924 25.70334501 65.81240927 24.1171875 61.96875 C23.75038376 61.07968964 23.38358002 60.19062927 23.00566101 59.27462769 C20.67763046 53.63422904 18.33896777 47.99848912 15.9831543 42.36962891 C14.27949474 38.26341593 12.641735 34.1312512 11 30 C10.70609375 29.27039063 10.4121875 28.54078125 10.109375 27.7890625 C9.06498669 25.19579323 8.03085548 22.59868391 7 20 C6.71656738 19.28585937 6.43313477 18.57171875 6.14111328 17.8359375 C5.17345503 15.39216509 4.21122258 12.94631027 3.25 10.5 C2.93184326 9.69755859 2.61368652 8.89511719 2.28588867 8.06835938 C1.99045166 7.31361328 1.69501465 6.55886719 1.390625 5.78125 C1.12282227 5.10126953 0.85501953 4.42128906 0.57910156 3.72070312 C0 2 0 2 0 0 Z " fill="#131313" transform="translate(753,709)"/>
<path d="M0 0 C35.64 0 71.28 0 108 0 C106.81324061 3.56027818 105.67631214 6.9256947 104.23852539 10.35742188 C103.89885239 11.1712735 103.55917938 11.98512512 103.20921326 12.82363892 C102.84239944 13.69652557 102.47558563 14.56941223 102.09765625 15.46875 C101.70824356 16.4005307 101.31883087 17.3323114 100.9176178 18.29232788 C100.07530734 20.30738132 99.23206793 22.32204664 98.38800049 24.33636475 C96.11722824 29.7561252 93.85389088 35.17899007 91.58984375 40.6015625 C91.12437134 41.7159671 90.65889893 42.8303717 90.17932129 43.97854614 C85.46682131 55.26592789 80.79110399 66.56837405 76.125 77.875 C75.76560333 78.74552002 75.40620667 79.61604004 75.03591919 80.51293945 C67.67774332 98.33665395 60.34193257 116.16959234 53 134 C16.7 134 -19.6 134 -57 134 C-56.22060093 129.32360559 -55.42979937 126.17604398 -53.625 121.9375 C-53.20476562 120.93589844 -52.78453125 119.93429687 -52.3515625 118.90234375 C-51 116 -51 116 -49.4609375 113.45703125 C-47.95620593 110.92634634 -46.99050718 108.52032476 -46 105.75 C-43.55467067 99.25095508 -40.81280489 92.91043728 -38 86.5625 C-33.91865329 77.35008032 -29.87317684 68.12384694 -25.875 58.875 C-20.91837239 47.41797755 -15.94840027 35.96680248 -10.96466064 24.52154541 C-10.20038484 22.7659824 -9.43650544 21.01024676 -8.67303467 19.2543335 C-7.60209227 16.79148899 -6.52974572 14.32926058 -5.45703125 11.8671875 C-4.9766465 10.76141357 -4.9766465 10.76141357 -4.48655701 9.63330078 C-3.06518003 6.3749653 -1.59058999 3.18117998 0 0 Z " fill="#131312" transform="translate(394,709)"/>
<path d="M0 0 C3.63 0 7.26 0 11 0 C11.37060547 0.82161621 11.74121094 1.64323242 12.12304688 2.48974609 C13.91261295 6.45274783 15.70537467 10.41428723 17.5 14.375 C17.82936554 15.10220245 18.15873108 15.82940491 18.49807739 16.5786438 C22.45729096 25.3119819 26.46023113 34.02239906 30.55859375 42.69140625 C31.11137497 43.86098877 31.11137497 43.86098877 31.67532349 45.05419922 C33.46714527 48.84118487 35.26531778 52.62503801 37.0703125 56.40576172 C37.72270535 57.77959908 38.37505161 59.15345857 39.02734375 60.52734375 C39.32974472 61.15604874 39.63214569 61.78475372 39.94371033 62.43251038 C42 66.77392107 42 66.77392107 42 69 C38.37 69 34.74 69 31 69 C28.14376931 63.36473404 25.49335889 57.8178374 23 52 C11.12 52 -0.76 52 -13 52 C-15.31 57.61 -17.62 63.22 -20 69 C-23.96 69 -27.92 69 -32 69 C-30.69164011 64.83136947 -29.12316371 60.97547555 -27.19921875 57.0546875 C-26.64016846 55.90814697 -26.08111816 54.76160645 -25.50512695 53.58032227 C-25.20885406 52.97648712 -24.91258118 52.37265198 -24.60733032 51.7505188 C-23.02883636 48.53199574 -21.46299447 45.30734755 -19.8984375 42.08203125 C-19.57653946 41.41862228 -19.25464142 40.75521332 -18.92298889 40.07170105 C-14.90423689 31.76695696 -11.03842345 23.39170089 -7.17651367 15.01318359 C-6.67095947 13.91699707 -6.16540527 12.82081055 -5.64453125 11.69140625 C-5.20471924 10.73435791 -4.76490723 9.77730957 -4.31176758 8.79125977 C-2.92267287 5.83545858 -1.47160361 2.91548175 0 0 Z " fill="#1A1A1A" transform="translate(370,899)"/>
<path d="M0 0 C16.5 0 33 0 50 0 C50 3.3 50 6.6 50 10 C37.13 10 24.26 10 11 10 C11 16.6 11 23.2 11 30 C22.22 30 33.44 30 45 30 C45 32.97 45 35.94 45 39 C33.78 39 22.56 39 11 39 C11 46.26 11 53.52 11 61 C24.2 61 37.4 61 51 61 C51 63.97 51 66.94 51 70 C34.17 70 17.34 70 0 70 C0 46.9 0 23.8 0 0 Z " fill="#1D1D1C" transform="translate(873,898)"/>
<path d="M0 0 C3.63 0 7.26 0 11 0 C18.81440924 16.93634759 26.4606769 33.93972503 34 51 C37.04185373 49.47907314 37.40952277 47.13889334 38.72265625 44.04296875 C38.98435608 43.43182724 39.24605591 42.82068573 39.51568604 42.19102478 C40.37042022 40.19226783 41.21630707 38.18988588 42.0625 36.1875 C43.23156551 33.44801446 44.40509171 30.71044467 45.578125 27.97265625 C45.86911575 27.29168884 46.16010651 26.61072144 46.45991516 25.90911865 C49.00961005 19.95030727 51.63903469 14.02933905 54.3125 8.125 C54.69092041 7.28864014 55.06934082 6.45228027 55.45922852 5.59057617 C56.30429853 3.72620938 57.15181007 1.86294946 58 0 C61.63 0 65.26 0 69 0 C66.89973501 6.7086134 64.30319741 12.95706112 61.3125 19.3125 C56.19507815 30.32392786 51.23403982 41.39994636 46.3125 52.5 C45.94903473 53.31933014 45.58556946 54.13866028 45.21109009 54.9828186 C43.13884533 59.65438047 41.06852718 64.32679089 39 69 C36.03 69 33.06 69 30 69 C26.09832854 62.30950496 23.02080036 55.64976304 20.34765625 48.38671875 C18.44131878 43.59600979 16.05829927 39.0862562 13.703125 34.50390625 C11.5386751 30.05089808 9.80884424 25.4979348 8.140625 20.83984375 C7.00328152 18.00817009 5.59373638 15.59514828 4 13 C3.41688948 11.68426345 2.87075754 10.3510755 2.375 9 C2.13523437 8.360625 1.89546875 7.72125 1.6484375 7.0625 C0.92339681 4.75634648 0.47409947 2.37049736 0 0 Z " fill="#191919" transform="translate(725,899)"/>
<path d="M0 0 C3.3 0 6.6 0 10 0 C10 20.13 10 40.26 10 61 C22.54 61 35.08 61 48 61 C48 63.97 48 66.94 48 70 C32.16 70 16.32 70 0 70 C0 46.9 0 23.8 0 0 Z " fill="#171717" transform="translate(498,898)"/>
<path d="M0 0 C3.63 0 7.26 0 11 0 C11 23.1 11 46.2 11 70 C7.37 70 3.74 70 0 70 C0 46.9 0 23.8 0 0 Z " fill="#1A1A19" transform="translate(630,898)"/>
<path d="M0 0 C0.66 0 1.32 0 2 0 C3.69518272 3.62746993 5.3857132 7.25706762 7.07202148 10.88867188 C7.64595122 12.12298509 8.2211336 13.35671667 8.79760742 14.58984375 C9.62750572 16.36563994 10.45248346 18.14373305 11.27734375 19.921875 C11.77484131 20.99018555 12.27233887 22.05849609 12.78491211 23.15917969 C14 26 14 26 15 30 C6.09 30 -2.82 30 -12 30 C-11.16666756 25.83333781 -10.19946861 22.86087793 -8.49609375 19.04296875 C-8.00302734 17.93115234 -7.50996094 16.81933594 -7.00195312 15.67382812 C-6.48568359 14.52333984 -5.96941406 13.37285156 -5.4375 12.1875 C-4.91736328 11.01767578 -4.39722656 9.84785156 -3.86132812 8.64257812 C-2.57872888 5.75967157 -1.29147717 2.87893769 0 0 Z " fill="#F0F0F0" transform="translate(374,911)"/>
<path d="M0 0 C35.64 0 71.28 0 108 0 C108 0.66 108 1.32 108 2 C73.02 2 38.04 2 2 2 C2.33 3.32 2.66 4.64 3 6 C2.34 5.67 1.68 5.34 1 5 C0.67 3.35 0.34 1.7 0 0 Z " fill="#1B1B1B" transform="translate(753,709)"/>
<path d="M0 0 C11.88 0 23.76 0 36 0 C36 0.33 36 0.66 36 1 C34.47076904 1.02187378 34.47076904 1.02187378 32.91064453 1.04418945 C29.13456834 1.10208466 25.35909404 1.17931665 21.58349609 1.26245117 C19.94817866 1.29574214 18.31274518 1.32376106 16.67724609 1.34643555 C14.32859757 1.37990628 11.98101663 1.43221436 9.6328125 1.48828125 C8.53273361 1.49786613 8.53273361 1.49786613 7.41043091 1.50764465 C5.12675244 1.53994543 5.12675244 1.53994543 2 2 C1.01 3.485 1.01 3.485 0 5 C-0.66 5 -1.32 5 -2 5 C-1.34 3.35 -0.68 1.7 0 0 Z " fill="#D1D2D2" transform="translate(357,950)"/>
<path d="M0 0 C0.66 0.66 1.32 1.32 2 2 C1.6730244 4.61580479 1.17960932 6.64078137 0 9 C-0.66 9 -1.32 9 -2 9 C-2.33 10.65 -2.66 12.3 -3 14 C-3.66 14 -4.32 14 -5 14 C-3.45730076 9.27934033 -1.92205381 4.58335908 0 0 Z " fill="#2A2A2A" transform="translate(359,788)"/>
<path d="M0 0 C1.07310858 3.27185553 0.89263102 5.42947592 0.0625 8.75 C-0.22947266 9.94882812 -0.22947266 9.94882812 -0.52734375 11.171875 C-0.68332031 11.77515625 -0.83929687 12.3784375 -1 13 C-1.99 13 -2.98 13 -4 13 C-3.27991594 8.39146203 -1.68704061 4.32762591 0 0 Z " fill="#2B2B2B" transform="translate(584,603)"/>
<path d="M0 0 C0.33 0 0.66 0 1 0 C0.67 3.3 0.34 6.6 0 10 C-0.66 10 -1.32 10 -2 10 C-2.33 10.66 -2.66 11.32 -3 12 C-2.88541307 10.56163249 -2.75790884 9.12429034 -2.625 7.6875 C-2.55539062 6.88699219 -2.48578125 6.08648438 -2.4140625 5.26171875 C-2 3 -2 3 0 0 Z " fill="#373737" transform="translate(1109,982)"/>
<path d="M0 0 C0.33 0 0.66 0 1 0 C1.05447047 1.41623216 1.09300508 2.83308191 1.125 4.25 C1.14820313 5.03890625 1.17140625 5.8278125 1.1953125 6.640625 C0.9828378 9.20731941 0.28654105 10.7916067 -1 13 C-1.66 13 -2.32 13 -3 13 C-2.68817931 11.58318366 -2.37551263 10.16655349 -2.0625 8.75 C-1.88847656 7.96109375 -1.71445313 7.1721875 -1.53515625 6.359375 C-1.052444 4.23121297 -0.53836822 2.11467158 0 0 Z " fill="#E0DFE0" transform="translate(151,231)"/>
<path d="M0 0 C-0.78318689 3.91593446 -2.39179858 7.36406635 -4 11 C-4.33 11 -4.66 11 -5 11 C-5.36637589 4.64948454 -5.36637589 4.64948454 -3.625 1.5625 C-2 0 -2 0 0 0 Z " fill="#DADADB" transform="translate(519,415)"/>
<path d="M0 0 C1.32 0.33 2.64 0.66 4 1 C2.68 3.64 1.36 6.28 0 9 C-0.99 9 -1.98 9 -3 9 C-2.01 6.03 -1.02 3.06 0 0 Z " fill="#212122" transform="translate(569,300)"/>
<path d="M0 0 C0 0.66 0 1.32 0 2 C-5.00890086 1.38487182 -10.00632136 0.7282448 -15 0 C-15 -0.33 -15 -0.66 -15 -1 C-9.53891111 -2.4002792 -5.30723432 -1.42705634 0 0 Z " fill="#2F2F2F" transform="translate(1009,137)"/>
<path d="M0 0 C0.99 0.33 1.98 0.66 3 1 C2.25 3.875 2.25 3.875 1 7 C-0.98 7.99 -0.98 7.99 -3 9 C-2.01 6.03 -1.02 3.06 0 0 Z " fill="#313131" transform="translate(522,407)"/>
<path d="M0 0 C1.79068573 2.6860286 2.66055791 4.6626589 3.625 7.6875 C3.88539063 8.49574219 4.14578125 9.30398438 4.4140625 10.13671875 C4.60742188 10.75160156 4.80078125 11.36648438 5 12 C4.34 12 3.68 12 3 12 C0.58314288 7.77050005 -0.34833144 4.87664009 0 0 Z " fill="#303030" transform="translate(751,934)"/>
<path d="M0 0 C2.88437779 1.29299694 4.87219421 2.65941363 7 5 C6.05125 4.938125 5.1025 4.87625 4.125 4.8125 C2.578125 4.9053125 2.578125 4.9053125 1 5 C0.34 5.99 -0.32 6.98 -1 8 C-0.67 5.36 -0.34 2.72 0 0 Z " fill="#C3C2C3" transform="translate(705,682)"/>
<path d="M0 0 C1.60226148 4.00565371 0.47694566 7.08609399 -1 11 C-1.99 11.33 -2.98 11.66 -4 12 C-2.66666667 8 -1.33333333 4 0 0 Z " fill="#D0D0D1" transform="translate(493,729)"/>
<path d="M0 0 C0.33 0 0.66 0 1 0 C0.50769231 7.38461538 0.50769231 7.38461538 -2.0625 10.5 C-2.701875 10.995 -3.34125 11.49 -4 12 C-2.66666667 8 -1.33333333 4 0 0 Z " fill="#CDCCCD" transform="translate(498,717)"/>
<path d="M0 0 C0.66 0.66 1.32 1.32 2 2 C1.625 5.125 1.625 5.125 1 8 C-0.32 8.33 -1.64 8.66 -3 9 C-2.01 6.03 -1.02 3.06 0 0 Z " fill="#D5D4D4" transform="translate(533,623)"/>
<path d="M0 0 C2 4 2 4 1.3125 6.6875 C0 9 0 9 -3 10 C-2.01 6.7 -1.02 3.4 0 0 Z " fill="#282828" transform="translate(598,567)"/>
<path d="M0 0 C0.66 1.32 1.32 2.64 2 4 C0.75 6.75 0.75 6.75 -1 9 C-1.66 9 -2.32 9 -3 9 C-2.01 6.03 -1.02 3.06 0 0 Z " fill="#D8D8D9" transform="translate(562,553)"/>
<path d="M0 0 C0.66 0.99 1.32 1.98 2 3 C1.125 6.1875 1.125 6.1875 0 9 C-1.125 7.3125 -1.125 7.3125 -2 5 C-1.125 2.25 -1.125 2.25 0 0 Z " fill="#2E2E2F" transform="translate(344,823)"/>
<path d="M0 0 C-1.39332574 3.36720387 -2.9789286 4.9859524 -6 7 C-6 4 -6 4 -4.125 1.8125 C-2 0 -2 0 0 0 Z " fill="#1D1D1E" transform="translate(944,655)"/>
<path d="M0 0 C2 3 2 3 1.625 5.1875 C1.41875 5.785625 1.2125 6.38375 1 7 C0.34 7 -0.32 7 -1 7 C-1 7.66 -1 8.32 -1 9 C-1.66 9 -2.32 9 -3 9 C-2.01 6.03 -1.02 3.06 0 0 Z " fill="#2E2E2E" transform="translate(554,334)"/>
<path d="M0 0 C0.95904856 3.83619425 0.91892116 5.32431536 0 9 C-0.99 9 -1.98 9 -3 9 C-2.01 6.03 -1.02 3.06 0 0 Z " fill="#282929" transform="translate(565,309)"/>
<path d="M0 0 C2.64 0 5.28 0 8 0 C8 0.66 8 1.32 8 2 C5.69 2.33 3.38 2.66 1 3 C0.67 2.01 0.34 1.02 0 0 Z " fill="#0D0D0E" transform="translate(725,899)"/>
<path d="M0 0 C0 0.33 0 0.66 0 1 C-1.2065625 1.185625 -1.2065625 1.185625 -2.4375 1.375 C-3.283125 1.58125 -4.12875 1.7875 -5 2 C-5.33 2.66 -5.66 3.32 -6 4 C-7.32 3.34 -8.64 2.68 -10 2 C-6.3558226 -0.4294516 -4.28758728 -0.16179575 0 0 Z " fill="#4C4C4C" transform="translate(624,529)"/>
<path d="M0 0 C1.125 1.75 1.125 1.75 2 4 C1.125 6.25 1.125 6.25 0 8 C-0.66 7.67 -1.32 7.34 -2 7 C-1.34 4.69 -0.68 2.38 0 0 Z " fill="#272727" transform="translate(490,482)"/>
</svg>
